<?xml version="1.0" encoding="UTF-8" standalone="no"?>
<!DOCTYPE svg PUBLIC "-//W3C//DTD SVG 1.1//EN" "http://www.w3.org/Graphics/SVG/1.1/DTD/svg11.dtd">
<svg width="100%" height="100%" viewBox="0 0 1024 1024" version="1.1" xmlns="http://www.w3.org/2000/svg" xmlns:xlink="http://www.w3.org/1999/xlink" xml:space="preserve" xmlns:serif="http://www.serif.com/" style="fill-rule:evenodd;clip-rule:evenodd;stroke-linejoin:round;stroke-miterlimit:2;">
    <g transform="matrix(1,0,0,1,-126.856,-268.186)">
        <g transform="matrix(888,0,0,888,409.216,1031.27)">
            <path d="M0.218,-0.012L0.218,-0.688L0.193,-0.688L0.193,-0.7L0.32,-0.7L0.32,-0.688L0.3,-0.688L0.299,-0.012L0.416,-0.012L0.416,-0.688L0.391,-0.688L0.391,-0.7L0.522,-0.7L0.522,-0.688L0.498,-0.688L0.497,-0.012L0.523,-0.012L0.523,-0L0,-0L0,-0.012L0.025,-0.012L0.025,-0.688L0,-0.688L0,-0.7L0.127,-0.7L0.127,-0.688L0.107,-0.688L0.106,-0.012L0.218,-0.012Z" style="fill-rule:nonzero;"/>
        </g>
    </g>
    <g transform="matrix(1,0,0,1,386.437,-117.94)">
        <g transform="matrix(288,0,0,288,84.2455,1080.64)">
            <path d="M0.015,-0.15C0.014,-0.23 0.014,-0.296 0.015,-0.347C0.015,-0.398 0.015,-0.439 0.015,-0.469L0.015,-0.55C0.015,-0.566 0.016,-0.583 0.017,-0.601C0.018,-0.618 0.023,-0.634 0.031,-0.649C0.039,-0.664 0.052,-0.676 0.07,-0.686C0.087,-0.695 0.112,-0.7 0.144,-0.7C0.177,-0.7 0.202,-0.696 0.22,-0.688C0.237,-0.679 0.25,-0.668 0.259,-0.655C0.267,-0.641 0.272,-0.625 0.273,-0.607C0.274,-0.589 0.275,-0.57 0.274,-0.55C0.274,-0.499 0.274,-0.455 0.275,-0.417C0.275,-0.378 0.275,-0.345 0.275,-0.317C0.275,-0.288 0.275,-0.264 0.276,-0.245C0.276,-0.226 0.276,-0.21 0.276,-0.198C0.276,-0.169 0.276,-0.153 0.277,-0.15C0.277,-0.125 0.276,-0.103 0.275,-0.084C0.274,-0.065 0.269,-0.05 0.261,-0.038C0.252,-0.025 0.239,-0.016 0.221,-0.01C0.203,-0.003 0.177,-0 0.144,-0C0.112,-0 0.087,-0.003 0.07,-0.01C0.052,-0.016 0.039,-0.025 0.031,-0.038C0.023,-0.051 0.018,-0.066 0.017,-0.085C0.016,-0.103 0.015,-0.125 0.015,-0.15ZM0.092,-0.15C0.092,-0.128 0.092,-0.109 0.093,-0.092C0.094,-0.075 0.095,-0.06 0.099,-0.049C0.101,-0.037 0.107,-0.028 0.114,-0.022C0.121,-0.015 0.131,-0.012 0.144,-0.012C0.157,-0.012 0.167,-0.015 0.174,-0.022C0.181,-0.028 0.186,-0.037 0.189,-0.049C0.192,-0.06 0.194,-0.075 0.195,-0.092C0.195,-0.109 0.195,-0.128 0.195,-0.15L0.195,-0.218C0.195,-0.246 0.195,-0.286 0.195,-0.339C0.194,-0.391 0.194,-0.461 0.193,-0.55C0.194,-0.567 0.194,-0.584 0.193,-0.601C0.192,-0.617 0.191,-0.631 0.188,-0.645C0.185,-0.658 0.18,-0.668 0.173,-0.676C0.166,-0.684 0.156,-0.688 0.144,-0.688C0.131,-0.688 0.121,-0.684 0.114,-0.675C0.107,-0.666 0.101,-0.654 0.099,-0.641C0.095,-0.627 0.094,-0.612 0.093,-0.596C0.092,-0.579 0.092,-0.564 0.092,-0.55L0.092,-0.454C0.092,-0.421 0.092,-0.38 0.092,-0.33C0.091,-0.279 0.091,-0.219 0.092,-0.15Z" style="fill-rule:nonzero;"/>
        </g>
    </g>
</svg>
